<mxfile host="Electron" modified="2024-05-02T13:10:59.922Z" agent="Mozilla/5.0 (Windows NT 10.0; Win64; x64) AppleWebKit/537.36 (KHTML, like Gecko) draw.io/24.2.5 Chrome/120.0.6099.109 Electron/28.1.0 Safari/537.36" etag="mBc-Nb3Nhch3SIMDcrv1" version="24.2.5" type="device">
  <diagram name="Page-1" id="wyRwygj5c_A2fnUZXtbC">
    <mxGraphModel dx="2307" dy="1809" grid="1" gridSize="10" guides="1" tooltips="1" connect="1" arrows="1" fold="1" page="1" pageScale="1" pageWidth="850" pageHeight="1100" math="0" shadow="0">
      <root>
        <mxCell id="0" />
        <mxCell id="1" parent="0" />
        <mxCell id="bHs48gFSJPwJR3EDCK-C-1" value="&lt;font style=&quot;font-size: 14px;&quot;&gt;Payment&lt;/font&gt;" style="rounded=0;whiteSpace=wrap;html=1;fillColor=#e6d0de;gradientColor=#d5739d;strokeColor=#996185;" parent="1" vertex="1">
          <mxGeometry x="60" y="400" width="120" height="40" as="geometry" />
        </mxCell>
        <mxCell id="bHs48gFSJPwJR3EDCK-C-3" value="&lt;font style=&quot;font-size: 14px;&quot;&gt;Address&lt;/font&gt;" style="rounded=0;whiteSpace=wrap;html=1;fillColor=#e6d0de;gradientColor=#d5739d;strokeColor=#996185;" parent="1" vertex="1">
          <mxGeometry x="425" y="400" width="120" height="40" as="geometry" />
        </mxCell>
        <mxCell id="bHs48gFSJPwJR3EDCK-C-4" value="&lt;font style=&quot;font-size: 14px;&quot;&gt;Shipping Details&lt;/font&gt;" style="rounded=0;whiteSpace=wrap;html=1;fillColor=#e6d0de;gradientColor=#d5739d;strokeColor=#996185;" parent="1" vertex="1">
          <mxGeometry x="790" y="410" width="120" height="40" as="geometry" />
        </mxCell>
        <mxCell id="bHs48gFSJPwJR3EDCK-C-5" value="&lt;font style=&quot;font-size: 14px;&quot;&gt;Cart&lt;/font&gt;" style="rounded=0;whiteSpace=wrap;html=1;fillColor=#e6d0de;gradientColor=#d5739d;strokeColor=#996185;" parent="1" vertex="1">
          <mxGeometry x="1170" y="380" width="130" height="40" as="geometry" />
        </mxCell>
        <mxCell id="bHs48gFSJPwJR3EDCK-C-6" value="&lt;font style=&quot;font-size: 14px;&quot;&gt;Product-category&lt;/font&gt;" style="rounded=0;whiteSpace=wrap;html=1;fillColor=#e6d0de;gradientColor=#d5739d;strokeColor=#996185;" parent="1" vertex="1">
          <mxGeometry x="1760" y="290" width="120" height="40" as="geometry" />
        </mxCell>
        <mxCell id="bHs48gFSJPwJR3EDCK-C-7" value="&lt;font style=&quot;font-size: 14px;&quot;&gt;Product&lt;/font&gt;" style="rounded=0;whiteSpace=wrap;html=1;fillColor=#e6d0de;gradientColor=#d5739d;strokeColor=#996185;" parent="1" vertex="1">
          <mxGeometry x="1320" y="80" width="120" height="40" as="geometry" />
        </mxCell>
        <mxCell id="bHs48gFSJPwJR3EDCK-C-9" value="Customer" style="rounded=0;whiteSpace=wrap;html=1;fillColor=#e6d0de;gradientColor=#d5739d;strokeColor=#996185;" parent="1" vertex="1">
          <mxGeometry x="70" y="80" width="100" height="40" as="geometry" />
        </mxCell>
        <mxCell id="bHs48gFSJPwJR3EDCK-C-10" value="&lt;font style=&quot;font-size: 14px;&quot;&gt;Wishlist&lt;/font&gt;" style="rounded=0;whiteSpace=wrap;html=1;fillColor=#e6d0de;gradientColor=#d5739d;strokeColor=#996185;" parent="1" vertex="1">
          <mxGeometry x="1500" y="380" width="120" height="40" as="geometry" />
        </mxCell>
        <mxCell id="bHs48gFSJPwJR3EDCK-C-11" value="customer_id" style="ellipse;whiteSpace=wrap;html=1;fillColor=#d5e8d4;gradientColor=#97d077;strokeColor=#82b366;" parent="1" vertex="1">
          <mxGeometry x="-110" y="50" width="100" height="30" as="geometry" />
        </mxCell>
        <mxCell id="bHs48gFSJPwJR3EDCK-C-12" value="lastName" style="ellipse;whiteSpace=wrap;html=1;fillColor=#d5e8d4;gradientColor=#97d077;strokeColor=#82b366;" parent="1" vertex="1">
          <mxGeometry x="-60" y="-70" width="110" height="40" as="geometry" />
        </mxCell>
        <mxCell id="bHs48gFSJPwJR3EDCK-C-13" value="firstName" style="ellipse;whiteSpace=wrap;html=1;fillColor=#d5e8d4;gradientColor=#97d077;strokeColor=#82b366;" parent="1" vertex="1">
          <mxGeometry x="-100" width="120" height="30" as="geometry" />
        </mxCell>
        <mxCell id="bHs48gFSJPwJR3EDCK-C-14" value="address" style="ellipse;whiteSpace=wrap;html=1;fillColor=#d5e8d4;gradientColor=#97d077;strokeColor=#82b366;" parent="1" vertex="1">
          <mxGeometry x="50" y="-100" width="100" height="40" as="geometry" />
        </mxCell>
        <mxCell id="bHs48gFSJPwJR3EDCK-C-15" value="phoneNumber" style="ellipse;whiteSpace=wrap;html=1;fillColor=#d5e8d4;gradientColor=#97d077;strokeColor=#82b366;" parent="1" vertex="1">
          <mxGeometry x="-35" y="170" width="110" height="40" as="geometry" />
        </mxCell>
        <mxCell id="bHs48gFSJPwJR3EDCK-C-16" value="email" style="ellipse;whiteSpace=wrap;html=1;fillColor=#d5e8d4;gradientColor=#97d077;strokeColor=#82b366;" parent="1" vertex="1">
          <mxGeometry x="-125" y="150" width="90" height="30" as="geometry" />
        </mxCell>
        <mxCell id="bHs48gFSJPwJR3EDCK-C-25" value="password" style="ellipse;whiteSpace=wrap;html=1;fillColor=#d5e8d4;gradientColor=#97d077;strokeColor=#82b366;" parent="1" vertex="1">
          <mxGeometry x="-140" y="100" width="120" height="40" as="geometry" />
        </mxCell>
        <mxCell id="bHs48gFSJPwJR3EDCK-C-27" value="order_status" style="ellipse;whiteSpace=wrap;html=1;fillColor=#d5e8d4;gradientColor=#97d077;strokeColor=#82b366;" parent="1" vertex="1">
          <mxGeometry x="525" y="-60" width="110" height="40" as="geometry" />
        </mxCell>
        <mxCell id="bHs48gFSJPwJR3EDCK-C-31" value="order_id" style="ellipse;whiteSpace=wrap;html=1;fillColor=#d5e8d4;gradientColor=#97d077;strokeColor=#82b366;" parent="1" vertex="1">
          <mxGeometry x="545" y="30" width="110" height="40" as="geometry" />
        </mxCell>
        <mxCell id="bHs48gFSJPwJR3EDCK-C-32" value="order_date" style="ellipse;whiteSpace=wrap;html=1;fillColor=#d5e8d4;gradientColor=#97d077;strokeColor=#82b366;" parent="1" vertex="1">
          <mxGeometry x="510" y="-20" width="110" height="40" as="geometry" />
        </mxCell>
        <mxCell id="bHs48gFSJPwJR3EDCK-C-33" value="customer_id" style="ellipse;whiteSpace=wrap;html=1;fillColor=#d5e8d4;gradientColor=#97d077;strokeColor=#82b366;" parent="1" vertex="1">
          <mxGeometry x="570" y="-100" width="110" height="40" as="geometry" />
        </mxCell>
        <mxCell id="bHs48gFSJPwJR3EDCK-C-34" value="seller_id" style="ellipse;whiteSpace=wrap;html=1;fillColor=#d5e8d4;gradientColor=#97d077;strokeColor=#82b366;" parent="1" vertex="1">
          <mxGeometry x="690" y="-120" width="110" height="40" as="geometry" />
        </mxCell>
        <mxCell id="bHs48gFSJPwJR3EDCK-C-35" value="total_price" style="ellipse;whiteSpace=wrap;html=1;fillColor=#d5e8d4;gradientColor=#97d077;strokeColor=#82b366;" parent="1" vertex="1">
          <mxGeometry x="790" y="-80" width="110" height="40" as="geometry" />
        </mxCell>
        <mxCell id="bHs48gFSJPwJR3EDCK-C-36" value="payment_id" style="ellipse;whiteSpace=wrap;html=1;fillColor=#d5e8d4;gradientColor=#97d077;strokeColor=#82b366;" parent="1" vertex="1">
          <mxGeometry x="820" y="-30" width="110" height="40" as="geometry" />
        </mxCell>
        <mxCell id="bHs48gFSJPwJR3EDCK-C-37" value="shippment_id" style="ellipse;whiteSpace=wrap;html=1;fillColor=#d5e8d4;gradientColor=#97d077;strokeColor=#82b366;" parent="1" vertex="1">
          <mxGeometry x="810" y="30" width="110" height="40" as="geometry" />
        </mxCell>
        <mxCell id="bHs48gFSJPwJR3EDCK-C-38" value="description" style="ellipse;whiteSpace=wrap;html=1;fillColor=#d5e8d4;gradientColor=#97d077;strokeColor=#82b366;" parent="1" vertex="1">
          <mxGeometry x="1390" y="-50" width="110" height="20" as="geometry" />
        </mxCell>
        <mxCell id="bHs48gFSJPwJR3EDCK-C-39" value="product_name" style="ellipse;whiteSpace=wrap;html=1;fillColor=#d5e8d4;gradientColor=#97d077;strokeColor=#82b366;" parent="1" vertex="1">
          <mxGeometry x="1300" y="-30" width="110" height="30" as="geometry" />
        </mxCell>
        <mxCell id="bHs48gFSJPwJR3EDCK-C-40" value="product_id" style="ellipse;whiteSpace=wrap;html=1;fillColor=#d5e8d4;gradientColor=#97d077;strokeColor=#82b366;" parent="1" vertex="1">
          <mxGeometry x="1260" y="5" width="110" height="30" as="geometry" />
        </mxCell>
        <mxCell id="bHs48gFSJPwJR3EDCK-C-41" value="price" style="ellipse;whiteSpace=wrap;html=1;fillColor=#d5e8d4;gradientColor=#97d077;strokeColor=#82b366;" parent="1" vertex="1">
          <mxGeometry x="1440" y="-15" width="110" height="30" as="geometry" />
        </mxCell>
        <mxCell id="bHs48gFSJPwJR3EDCK-C-42" value="images" style="ellipse;whiteSpace=wrap;html=1;fillColor=#d5e8d4;gradientColor=#97d077;strokeColor=#82b366;" parent="1" vertex="1">
          <mxGeometry x="1470" y="20" width="110" height="30" as="geometry" />
        </mxCell>
        <mxCell id="bHs48gFSJPwJR3EDCK-C-43" value="category_id" style="ellipse;whiteSpace=wrap;html=1;fillColor=#d5e8d4;gradientColor=#97d077;strokeColor=#82b366;" parent="1" vertex="1">
          <mxGeometry x="1470" y="60" width="110" height="25" as="geometry" />
        </mxCell>
        <mxCell id="bHs48gFSJPwJR3EDCK-C-44" value="category_id" style="ellipse;whiteSpace=wrap;html=1;fillColor=#d5e8d4;gradientColor=#97d077;strokeColor=#82b366;" parent="1" vertex="1">
          <mxGeometry x="1710" y="210" width="120" height="40" as="geometry" />
        </mxCell>
        <mxCell id="bHs48gFSJPwJR3EDCK-C-45" value="category_name" style="ellipse;whiteSpace=wrap;html=1;fillColor=#d5e8d4;gradientColor=#97d077;strokeColor=#82b366;" parent="1" vertex="1">
          <mxGeometry x="1860" y="220" width="120" height="40" as="geometry" />
        </mxCell>
        <mxCell id="bHs48gFSJPwJR3EDCK-C-46" value="payment_id" style="ellipse;whiteSpace=wrap;html=1;fillColor=#d5e8d4;gradientColor=#97d077;strokeColor=#82b366;" parent="1" vertex="1">
          <mxGeometry x="-95" y="460" width="110" height="40" as="geometry" />
        </mxCell>
        <mxCell id="bHs48gFSJPwJR3EDCK-C-47" value="payment_date" style="ellipse;whiteSpace=wrap;html=1;fillColor=#d5e8d4;gradientColor=#97d077;strokeColor=#82b366;" parent="1" vertex="1">
          <mxGeometry x="-80" y="520" width="110" height="40" as="geometry" />
        </mxCell>
        <mxCell id="bHs48gFSJPwJR3EDCK-C-48" value="payment_method" style="ellipse;whiteSpace=wrap;html=1;fillColor=#d5e8d4;gradientColor=#97d077;strokeColor=#82b366;" parent="1" vertex="1">
          <mxGeometry x="-10" y="580" width="110" height="40" as="geometry" />
        </mxCell>
        <mxCell id="bHs48gFSJPwJR3EDCK-C-49" value="amount" style="ellipse;whiteSpace=wrap;html=1;fillColor=#d5e8d4;gradientColor=#97d077;strokeColor=#82b366;" parent="1" vertex="1">
          <mxGeometry x="110" y="550" width="110" height="40" as="geometry" />
        </mxCell>
        <mxCell id="bHs48gFSJPwJR3EDCK-C-50" value="customer_id" style="ellipse;whiteSpace=wrap;html=1;fillColor=#d5e8d4;gradientColor=#97d077;strokeColor=#82b366;" parent="1" vertex="1">
          <mxGeometry x="150" y="490" width="110" height="40" as="geometry" />
        </mxCell>
        <mxCell id="bHs48gFSJPwJR3EDCK-C-51" value="Makes/View" style="rhombus;whiteSpace=wrap;html=1;fillColor=#dae8fc;gradientColor=#7ea6e0;strokeColor=#6c8ebf;" parent="1" vertex="1">
          <mxGeometry x="405" y="60" width="80" height="80" as="geometry" />
        </mxCell>
        <mxCell id="bHs48gFSJPwJR3EDCK-C-60" value="" style="endArrow=none;html=1;rounded=0;entryX=0;entryY=0.5;entryDx=0;entryDy=0;" parent="1" target="bHs48gFSJPwJR3EDCK-C-51" edge="1">
          <mxGeometry width="50" height="50" relative="1" as="geometry">
            <mxPoint x="170" y="100" as="sourcePoint" />
            <mxPoint x="550" y="110" as="targetPoint" />
          </mxGeometry>
        </mxCell>
        <mxCell id="bHs48gFSJPwJR3EDCK-C-62" value="Makes" style="rhombus;whiteSpace=wrap;html=1;fillColor=#dae8fc;gradientColor=#7ea6e0;strokeColor=#6c8ebf;" parent="1" vertex="1">
          <mxGeometry x="80" y="230" width="80" height="80" as="geometry" />
        </mxCell>
        <mxCell id="bHs48gFSJPwJR3EDCK-C-63" value="" style="endArrow=none;html=1;rounded=0;entryX=0.5;entryY=1;entryDx=0;entryDy=0;exitX=0.5;exitY=0;exitDx=0;exitDy=0;" parent="1" source="bHs48gFSJPwJR3EDCK-C-62" target="bHs48gFSJPwJR3EDCK-C-9" edge="1">
          <mxGeometry width="50" height="50" relative="1" as="geometry">
            <mxPoint x="310" y="260" as="sourcePoint" />
            <mxPoint x="360" y="210" as="targetPoint" />
          </mxGeometry>
        </mxCell>
        <mxCell id="bHs48gFSJPwJR3EDCK-C-64" value="" style="endArrow=none;html=1;rounded=0;exitX=0.5;exitY=1;exitDx=0;exitDy=0;entryX=0.5;entryY=0;entryDx=0;entryDy=0;" parent="1" source="bHs48gFSJPwJR3EDCK-C-62" target="bHs48gFSJPwJR3EDCK-C-1" edge="1">
          <mxGeometry width="50" height="50" relative="1" as="geometry">
            <mxPoint x="310" y="260" as="sourcePoint" />
            <mxPoint x="360" y="210" as="targetPoint" />
          </mxGeometry>
        </mxCell>
        <mxCell id="bHs48gFSJPwJR3EDCK-C-70" value="has" style="rhombus;whiteSpace=wrap;html=1;fillColor=#dae8fc;gradientColor=#7ea6e0;strokeColor=#6c8ebf;" parent="1" vertex="1">
          <mxGeometry x="445" y="220" width="80" height="80" as="geometry" />
        </mxCell>
        <mxCell id="bHs48gFSJPwJR3EDCK-C-71" value="" style="endArrow=none;html=1;rounded=0;exitX=1;exitY=1;exitDx=0;exitDy=0;entryX=0.5;entryY=0;entryDx=0;entryDy=0;" parent="1" source="bHs48gFSJPwJR3EDCK-C-9" target="bHs48gFSJPwJR3EDCK-C-70" edge="1">
          <mxGeometry width="50" height="50" relative="1" as="geometry">
            <mxPoint x="460" y="380" as="sourcePoint" />
            <mxPoint x="510" y="330" as="targetPoint" />
          </mxGeometry>
        </mxCell>
        <mxCell id="bHs48gFSJPwJR3EDCK-C-72" value="" style="endArrow=none;html=1;rounded=0;exitX=0.5;exitY=1;exitDx=0;exitDy=0;entryX=0.5;entryY=0;entryDx=0;entryDy=0;" parent="1" source="bHs48gFSJPwJR3EDCK-C-70" target="bHs48gFSJPwJR3EDCK-C-3" edge="1">
          <mxGeometry width="50" height="50" relative="1" as="geometry">
            <mxPoint x="460" y="380" as="sourcePoint" />
            <mxPoint x="510" y="330" as="targetPoint" />
          </mxGeometry>
        </mxCell>
        <mxCell id="bHs48gFSJPwJR3EDCK-C-8" value="&lt;font style=&quot;font-size: 14px;&quot;&gt;Order&lt;/font&gt;" style="rounded=0;whiteSpace=wrap;html=1;fillColor=#e6d0de;gradientColor=#d5739d;strokeColor=#996185;" parent="1" vertex="1">
          <mxGeometry x="700" y="80" width="110" height="40" as="geometry" />
        </mxCell>
        <mxCell id="bHs48gFSJPwJR3EDCK-C-74" value="country" style="ellipse;whiteSpace=wrap;html=1;fillColor=#d5e8d4;gradientColor=#97d077;strokeColor=#82b366;" parent="1" vertex="1">
          <mxGeometry x="340" y="480" width="120" height="30" as="geometry" />
        </mxCell>
        <mxCell id="bHs48gFSJPwJR3EDCK-C-75" value="state" style="ellipse;whiteSpace=wrap;html=1;fillColor=#d5e8d4;gradientColor=#97d077;strokeColor=#82b366;" parent="1" vertex="1">
          <mxGeometry x="385" y="540" width="120" height="30" as="geometry" />
        </mxCell>
        <mxCell id="bHs48gFSJPwJR3EDCK-C-79" value="address_id" style="ellipse;whiteSpace=wrap;html=1;fillColor=#d5e8d4;gradientColor=#97d077;strokeColor=#82b366;" parent="1" vertex="1">
          <mxGeometry x="515" y="525" width="120" height="30" as="geometry" />
        </mxCell>
        <mxCell id="bHs48gFSJPwJR3EDCK-C-80" value="city" style="ellipse;whiteSpace=wrap;html=1;fillColor=#d5e8d4;gradientColor=#97d077;strokeColor=#82b366;" parent="1" vertex="1">
          <mxGeometry x="560" y="480" width="120" height="30" as="geometry" />
        </mxCell>
        <mxCell id="bHs48gFSJPwJR3EDCK-C-81" value="" style="endArrow=none;html=1;rounded=0;entryX=0;entryY=0.5;entryDx=0;entryDy=0;" parent="1" target="bHs48gFSJPwJR3EDCK-C-8" edge="1">
          <mxGeometry width="50" height="50" relative="1" as="geometry">
            <mxPoint x="485" y="98.82" as="sourcePoint" />
            <mxPoint x="670" y="100" as="targetPoint" />
          </mxGeometry>
        </mxCell>
        <mxCell id="bHs48gFSJPwJR3EDCK-C-85" value="contains" style="rhombus;whiteSpace=wrap;html=1;fillColor=#dae8fc;gradientColor=#7ea6e0;strokeColor=#6c8ebf;" parent="1" vertex="1">
          <mxGeometry x="990" y="60" width="80" height="80" as="geometry" />
        </mxCell>
        <mxCell id="bHs48gFSJPwJR3EDCK-C-87" value="contains" style="rhombus;whiteSpace=wrap;html=1;fillColor=#dae8fc;gradientColor=#7ea6e0;strokeColor=#6c8ebf;" parent="1" vertex="1">
          <mxGeometry x="1585" y="60" width="80" height="80" as="geometry" />
        </mxCell>
        <mxCell id="bHs48gFSJPwJR3EDCK-C-91" value="has" style="rhombus;whiteSpace=wrap;html=1;fillColor=#dae8fc;gradientColor=#7ea6e0;strokeColor=#6c8ebf;" parent="1" vertex="1">
          <mxGeometry x="810" y="240" width="80" height="80" as="geometry" />
        </mxCell>
        <mxCell id="bHs48gFSJPwJR3EDCK-C-94" value="product_id" style="ellipse;whiteSpace=wrap;html=1;fillColor=#d5e8d4;gradientColor=#97d077;strokeColor=#82b366;" parent="1" vertex="1">
          <mxGeometry x="1070" y="450" width="110" height="40" as="geometry" />
        </mxCell>
        <mxCell id="bHs48gFSJPwJR3EDCK-C-95" value="product_id" style="ellipse;whiteSpace=wrap;html=1;fillColor=#d5e8d4;gradientColor=#97d077;strokeColor=#82b366;" parent="1" vertex="1">
          <mxGeometry x="1420" y="450" width="110" height="40" as="geometry" />
        </mxCell>
        <mxCell id="bHs48gFSJPwJR3EDCK-C-96" value="product_name" style="ellipse;whiteSpace=wrap;html=1;fillColor=#d5e8d4;gradientColor=#97d077;strokeColor=#82b366;" parent="1" vertex="1">
          <mxGeometry x="1070" y="500" width="110" height="40" as="geometry" />
        </mxCell>
        <mxCell id="bHs48gFSJPwJR3EDCK-C-97" value="product_name" style="ellipse;whiteSpace=wrap;html=1;fillColor=#d5e8d4;gradientColor=#97d077;strokeColor=#82b366;" parent="1" vertex="1">
          <mxGeometry x="1505" y="520" width="110" height="40" as="geometry" />
        </mxCell>
        <mxCell id="bHs48gFSJPwJR3EDCK-C-98" value="price" style="ellipse;whiteSpace=wrap;html=1;fillColor=#d5e8d4;gradientColor=#97d077;strokeColor=#82b366;" parent="1" vertex="1">
          <mxGeometry x="1160" y="542.5" width="110" height="25" as="geometry" />
        </mxCell>
        <mxCell id="bHs48gFSJPwJR3EDCK-C-99" value="quantity" style="ellipse;whiteSpace=wrap;html=1;fillColor=#d5e8d4;gradientColor=#97d077;strokeColor=#82b366;" parent="1" vertex="1">
          <mxGeometry x="1260" y="510" width="110" height="40" as="geometry" />
        </mxCell>
        <mxCell id="bHs48gFSJPwJR3EDCK-C-100" value="image" style="ellipse;whiteSpace=wrap;html=1;fillColor=#d5e8d4;gradientColor=#97d077;strokeColor=#82b366;" parent="1" vertex="1">
          <mxGeometry x="1260" y="460" width="110" height="40" as="geometry" />
        </mxCell>
        <mxCell id="bHs48gFSJPwJR3EDCK-C-101" value="image" style="ellipse;whiteSpace=wrap;html=1;fillColor=#d5e8d4;gradientColor=#97d077;strokeColor=#82b366;" parent="1" vertex="1">
          <mxGeometry x="1600" y="450" width="110" height="40" as="geometry" />
        </mxCell>
        <mxCell id="bHs48gFSJPwJR3EDCK-C-102" value="added to" style="rhombus;whiteSpace=wrap;html=1;fillColor=#dae8fc;gradientColor=#7ea6e0;strokeColor=#6c8ebf;" parent="1" vertex="1">
          <mxGeometry x="1340" y="200" width="80" height="80" as="geometry" />
        </mxCell>
        <mxCell id="bHs48gFSJPwJR3EDCK-C-103" value="" style="endArrow=none;html=1;rounded=0;exitX=1;exitY=0.5;exitDx=0;exitDy=0;entryX=0;entryY=0.5;entryDx=0;entryDy=0;" parent="1" source="bHs48gFSJPwJR3EDCK-C-11" target="bHs48gFSJPwJR3EDCK-C-9" edge="1">
          <mxGeometry width="50" height="50" relative="1" as="geometry">
            <mxPoint x="140" y="150" as="sourcePoint" />
            <mxPoint x="190" y="100" as="targetPoint" />
          </mxGeometry>
        </mxCell>
        <mxCell id="bHs48gFSJPwJR3EDCK-C-104" value="" style="endArrow=none;html=1;rounded=0;exitX=1;exitY=1;exitDx=0;exitDy=0;entryX=0;entryY=0;entryDx=0;entryDy=0;" parent="1" source="bHs48gFSJPwJR3EDCK-C-13" target="bHs48gFSJPwJR3EDCK-C-9" edge="1">
          <mxGeometry width="50" height="50" relative="1" as="geometry">
            <mxPoint y="75" as="sourcePoint" />
            <mxPoint x="80" y="110" as="targetPoint" />
          </mxGeometry>
        </mxCell>
        <mxCell id="bHs48gFSJPwJR3EDCK-C-105" value="" style="endArrow=none;html=1;rounded=0;exitX=1;exitY=1;exitDx=0;exitDy=0;entryX=0.25;entryY=0;entryDx=0;entryDy=0;" parent="1" source="bHs48gFSJPwJR3EDCK-C-12" target="bHs48gFSJPwJR3EDCK-C-9" edge="1">
          <mxGeometry width="50" height="50" relative="1" as="geometry">
            <mxPoint x="140" y="150" as="sourcePoint" />
            <mxPoint x="190" y="100" as="targetPoint" />
          </mxGeometry>
        </mxCell>
        <mxCell id="bHs48gFSJPwJR3EDCK-C-107" value="" style="endArrow=none;html=1;rounded=0;exitX=0.5;exitY=1;exitDx=0;exitDy=0;" parent="1" source="bHs48gFSJPwJR3EDCK-C-14" target="bHs48gFSJPwJR3EDCK-C-9" edge="1">
          <mxGeometry width="50" height="50" relative="1" as="geometry">
            <mxPoint x="140" y="150" as="sourcePoint" />
            <mxPoint x="190" y="100" as="targetPoint" />
          </mxGeometry>
        </mxCell>
        <mxCell id="bHs48gFSJPwJR3EDCK-C-108" value="" style="endArrow=none;html=1;rounded=0;exitX=0.984;exitY=0.312;exitDx=0;exitDy=0;entryX=0;entryY=1;entryDx=0;entryDy=0;exitPerimeter=0;" parent="1" source="bHs48gFSJPwJR3EDCK-C-16" target="bHs48gFSJPwJR3EDCK-C-9" edge="1">
          <mxGeometry width="50" height="50" relative="1" as="geometry">
            <mxPoint x="140" y="150" as="sourcePoint" />
            <mxPoint x="190" y="100" as="targetPoint" />
          </mxGeometry>
        </mxCell>
        <mxCell id="bHs48gFSJPwJR3EDCK-C-109" value="" style="endArrow=none;html=1;rounded=0;entryX=0.326;entryY=1.111;entryDx=0;entryDy=0;entryPerimeter=0;" parent="1" target="bHs48gFSJPwJR3EDCK-C-9" edge="1">
          <mxGeometry width="50" height="50" relative="1" as="geometry">
            <mxPoint x="30" y="170" as="sourcePoint" />
            <mxPoint x="190" y="100" as="targetPoint" />
            <Array as="points">
              <mxPoint x="110" y="120" />
            </Array>
          </mxGeometry>
        </mxCell>
        <mxCell id="bHs48gFSJPwJR3EDCK-C-110" value="" style="endArrow=none;html=1;rounded=0;exitX=1;exitY=0.5;exitDx=0;exitDy=0;entryX=0;entryY=0.75;entryDx=0;entryDy=0;" parent="1" source="bHs48gFSJPwJR3EDCK-C-25" target="bHs48gFSJPwJR3EDCK-C-9" edge="1">
          <mxGeometry width="50" height="50" relative="1" as="geometry">
            <mxPoint x="140" y="150" as="sourcePoint" />
            <mxPoint x="190" y="100" as="targetPoint" />
          </mxGeometry>
        </mxCell>
        <mxCell id="bHs48gFSJPwJR3EDCK-C-111" value="" style="endArrow=none;html=1;rounded=0;exitX=1;exitY=1;exitDx=0;exitDy=0;entryX=0;entryY=0;entryDx=0;entryDy=0;" parent="1" source="bHs48gFSJPwJR3EDCK-C-31" target="bHs48gFSJPwJR3EDCK-C-8" edge="1">
          <mxGeometry width="50" height="50" relative="1" as="geometry">
            <mxPoint x="560" y="190" as="sourcePoint" />
            <mxPoint x="610" y="140" as="targetPoint" />
          </mxGeometry>
        </mxCell>
        <mxCell id="bHs48gFSJPwJR3EDCK-C-112" value="" style="endArrow=none;html=1;rounded=0;exitX=1;exitY=0.5;exitDx=0;exitDy=0;entryX=0.25;entryY=0;entryDx=0;entryDy=0;" parent="1" source="bHs48gFSJPwJR3EDCK-C-32" target="bHs48gFSJPwJR3EDCK-C-8" edge="1">
          <mxGeometry width="50" height="50" relative="1" as="geometry">
            <mxPoint x="560" y="190" as="sourcePoint" />
            <mxPoint x="610" y="140" as="targetPoint" />
          </mxGeometry>
        </mxCell>
        <mxCell id="bHs48gFSJPwJR3EDCK-C-113" value="" style="endArrow=none;html=1;rounded=0;exitX=1;exitY=0.5;exitDx=0;exitDy=0;entryX=0.5;entryY=0;entryDx=0;entryDy=0;" parent="1" source="bHs48gFSJPwJR3EDCK-C-27" target="bHs48gFSJPwJR3EDCK-C-8" edge="1">
          <mxGeometry width="50" height="50" relative="1" as="geometry">
            <mxPoint x="560" y="190" as="sourcePoint" />
            <mxPoint x="610" y="140" as="targetPoint" />
          </mxGeometry>
        </mxCell>
        <mxCell id="bHs48gFSJPwJR3EDCK-C-114" value="" style="endArrow=none;html=1;rounded=0;exitX=1;exitY=0.5;exitDx=0;exitDy=0;entryX=0.5;entryY=0;entryDx=0;entryDy=0;" parent="1" source="bHs48gFSJPwJR3EDCK-C-33" target="bHs48gFSJPwJR3EDCK-C-8" edge="1">
          <mxGeometry width="50" height="50" relative="1" as="geometry">
            <mxPoint x="560" y="190" as="sourcePoint" />
            <mxPoint x="610" y="140" as="targetPoint" />
          </mxGeometry>
        </mxCell>
        <mxCell id="bHs48gFSJPwJR3EDCK-C-115" value="" style="endArrow=none;html=1;rounded=0;entryX=0.5;entryY=1;entryDx=0;entryDy=0;exitX=0.634;exitY=-0.045;exitDx=0;exitDy=0;exitPerimeter=0;" parent="1" source="bHs48gFSJPwJR3EDCK-C-8" target="bHs48gFSJPwJR3EDCK-C-34" edge="1">
          <mxGeometry width="50" height="50" relative="1" as="geometry">
            <mxPoint x="560" y="190" as="sourcePoint" />
            <mxPoint x="610" y="140" as="targetPoint" />
          </mxGeometry>
        </mxCell>
        <mxCell id="bHs48gFSJPwJR3EDCK-C-116" value="" style="endArrow=none;html=1;rounded=0;entryX=0;entryY=1;entryDx=0;entryDy=0;exitX=0.75;exitY=0;exitDx=0;exitDy=0;" parent="1" source="bHs48gFSJPwJR3EDCK-C-8" target="bHs48gFSJPwJR3EDCK-C-35" edge="1">
          <mxGeometry width="50" height="50" relative="1" as="geometry">
            <mxPoint x="560" y="190" as="sourcePoint" />
            <mxPoint x="610" y="140" as="targetPoint" />
          </mxGeometry>
        </mxCell>
        <mxCell id="bHs48gFSJPwJR3EDCK-C-117" value="" style="endArrow=none;html=1;rounded=0;entryX=0;entryY=0.5;entryDx=0;entryDy=0;exitX=0.75;exitY=0;exitDx=0;exitDy=0;" parent="1" source="bHs48gFSJPwJR3EDCK-C-8" target="bHs48gFSJPwJR3EDCK-C-36" edge="1">
          <mxGeometry width="50" height="50" relative="1" as="geometry">
            <mxPoint x="560" y="190" as="sourcePoint" />
            <mxPoint x="610" y="140" as="targetPoint" />
          </mxGeometry>
        </mxCell>
        <mxCell id="bHs48gFSJPwJR3EDCK-C-118" value="" style="endArrow=none;html=1;rounded=0;entryX=0.44;entryY=1.029;entryDx=0;entryDy=0;entryPerimeter=0;exitX=1;exitY=0;exitDx=0;exitDy=0;" parent="1" source="bHs48gFSJPwJR3EDCK-C-8" target="bHs48gFSJPwJR3EDCK-C-37" edge="1">
          <mxGeometry width="50" height="50" relative="1" as="geometry">
            <mxPoint x="560" y="190" as="sourcePoint" />
            <mxPoint x="610" y="140" as="targetPoint" />
          </mxGeometry>
        </mxCell>
        <mxCell id="bHs48gFSJPwJR3EDCK-C-119" value="" style="endArrow=none;html=1;rounded=0;entryX=0;entryY=0.5;entryDx=0;entryDy=0;exitX=1;exitY=0.5;exitDx=0;exitDy=0;" parent="1" source="bHs48gFSJPwJR3EDCK-C-8" target="bHs48gFSJPwJR3EDCK-C-85" edge="1">
          <mxGeometry width="50" height="50" relative="1" as="geometry">
            <mxPoint x="680" y="230" as="sourcePoint" />
            <mxPoint x="730" y="180" as="targetPoint" />
          </mxGeometry>
        </mxCell>
        <mxCell id="bHs48gFSJPwJR3EDCK-C-120" value="" style="endArrow=none;html=1;rounded=0;entryX=0;entryY=0.5;entryDx=0;entryDy=0;exitX=1;exitY=0.5;exitDx=0;exitDy=0;" parent="1" source="bHs48gFSJPwJR3EDCK-C-85" target="bHs48gFSJPwJR3EDCK-C-7" edge="1">
          <mxGeometry width="50" height="50" relative="1" as="geometry">
            <mxPoint x="1010" y="230" as="sourcePoint" />
            <mxPoint x="1060" y="180" as="targetPoint" />
          </mxGeometry>
        </mxCell>
        <mxCell id="bHs48gFSJPwJR3EDCK-C-121" value="" style="endArrow=none;html=1;rounded=0;entryX=1;entryY=0.5;entryDx=0;entryDy=0;exitX=0;exitY=0;exitDx=0;exitDy=0;" parent="1" source="bHs48gFSJPwJR3EDCK-C-7" target="bHs48gFSJPwJR3EDCK-C-40" edge="1">
          <mxGeometry width="50" height="50" relative="1" as="geometry">
            <mxPoint x="1300" y="220" as="sourcePoint" />
            <mxPoint x="1350" y="170" as="targetPoint" />
          </mxGeometry>
        </mxCell>
        <mxCell id="bHs48gFSJPwJR3EDCK-C-122" value="" style="endArrow=none;html=1;rounded=0;exitX=1;exitY=1;exitDx=0;exitDy=0;entryX=0.25;entryY=0;entryDx=0;entryDy=0;" parent="1" source="bHs48gFSJPwJR3EDCK-C-39" target="bHs48gFSJPwJR3EDCK-C-7" edge="1">
          <mxGeometry width="50" height="50" relative="1" as="geometry">
            <mxPoint x="1300" y="220" as="sourcePoint" />
            <mxPoint x="1350" y="170" as="targetPoint" />
          </mxGeometry>
        </mxCell>
        <mxCell id="bHs48gFSJPwJR3EDCK-C-123" value="" style="endArrow=none;html=1;rounded=0;entryX=0.5;entryY=1;entryDx=0;entryDy=0;exitX=0.421;exitY=-0.005;exitDx=0;exitDy=0;exitPerimeter=0;" parent="1" source="bHs48gFSJPwJR3EDCK-C-7" target="bHs48gFSJPwJR3EDCK-C-38" edge="1">
          <mxGeometry width="50" height="50" relative="1" as="geometry">
            <mxPoint x="1300" y="220" as="sourcePoint" />
            <mxPoint x="1350" y="170" as="targetPoint" />
          </mxGeometry>
        </mxCell>
        <mxCell id="bHs48gFSJPwJR3EDCK-C-124" value="" style="endArrow=none;html=1;rounded=0;entryX=0.254;entryY=1.004;entryDx=0;entryDy=0;entryPerimeter=0;exitX=0.5;exitY=0;exitDx=0;exitDy=0;" parent="1" source="bHs48gFSJPwJR3EDCK-C-7" target="bHs48gFSJPwJR3EDCK-C-41" edge="1">
          <mxGeometry width="50" height="50" relative="1" as="geometry">
            <mxPoint x="1300" y="220" as="sourcePoint" />
            <mxPoint x="1350" y="170" as="targetPoint" />
          </mxGeometry>
        </mxCell>
        <mxCell id="bHs48gFSJPwJR3EDCK-C-125" value="" style="endArrow=none;html=1;rounded=0;entryX=0;entryY=0.5;entryDx=0;entryDy=0;exitX=0.75;exitY=0;exitDx=0;exitDy=0;" parent="1" source="bHs48gFSJPwJR3EDCK-C-7" target="bHs48gFSJPwJR3EDCK-C-42" edge="1">
          <mxGeometry width="50" height="50" relative="1" as="geometry">
            <mxPoint x="1300" y="220" as="sourcePoint" />
            <mxPoint x="1350" y="170" as="targetPoint" />
          </mxGeometry>
        </mxCell>
        <mxCell id="bHs48gFSJPwJR3EDCK-C-126" value="" style="endArrow=none;html=1;rounded=0;entryX=0;entryY=0.5;entryDx=0;entryDy=0;" parent="1" target="bHs48gFSJPwJR3EDCK-C-43" edge="1">
          <mxGeometry width="50" height="50" relative="1" as="geometry">
            <mxPoint x="1440" y="80" as="sourcePoint" />
            <mxPoint x="1350" y="170" as="targetPoint" />
          </mxGeometry>
        </mxCell>
        <mxCell id="bHs48gFSJPwJR3EDCK-C-127" value="" style="endArrow=none;html=1;rounded=0;entryX=0;entryY=0.5;entryDx=0;entryDy=0;exitX=1;exitY=0.5;exitDx=0;exitDy=0;" parent="1" source="bHs48gFSJPwJR3EDCK-C-7" target="bHs48gFSJPwJR3EDCK-C-87" edge="1">
          <mxGeometry width="50" height="50" relative="1" as="geometry">
            <mxPoint x="1300" y="220" as="sourcePoint" />
            <mxPoint x="1350" y="170" as="targetPoint" />
          </mxGeometry>
        </mxCell>
        <mxCell id="bHs48gFSJPwJR3EDCK-C-128" value="" style="endArrow=none;html=1;rounded=0;entryX=0;entryY=0.5;entryDx=0;entryDy=0;exitX=0.5;exitY=1;exitDx=0;exitDy=0;" parent="1" source="bHs48gFSJPwJR3EDCK-C-87" target="bHs48gFSJPwJR3EDCK-C-6" edge="1">
          <mxGeometry width="50" height="50" relative="1" as="geometry">
            <mxPoint x="1530" y="220" as="sourcePoint" />
            <mxPoint x="1580" y="170" as="targetPoint" />
          </mxGeometry>
        </mxCell>
        <mxCell id="bHs48gFSJPwJR3EDCK-C-129" value="" style="endArrow=none;html=1;rounded=0;entryX=0.5;entryY=1;entryDx=0;entryDy=0;exitX=0.25;exitY=0;exitDx=0;exitDy=0;" parent="1" source="bHs48gFSJPwJR3EDCK-C-6" target="bHs48gFSJPwJR3EDCK-C-44" edge="1">
          <mxGeometry width="50" height="50" relative="1" as="geometry">
            <mxPoint x="1460" y="430" as="sourcePoint" />
            <mxPoint x="1510" y="380" as="targetPoint" />
          </mxGeometry>
        </mxCell>
        <mxCell id="bHs48gFSJPwJR3EDCK-C-130" value="" style="endArrow=none;html=1;rounded=0;entryX=0.5;entryY=1;entryDx=0;entryDy=0;" parent="1" target="bHs48gFSJPwJR3EDCK-C-45" edge="1">
          <mxGeometry width="50" height="50" relative="1" as="geometry">
            <mxPoint x="1830" y="290" as="sourcePoint" />
            <mxPoint x="1510" y="380" as="targetPoint" />
          </mxGeometry>
        </mxCell>
        <mxCell id="bHs48gFSJPwJR3EDCK-C-131" value="" style="endArrow=none;html=1;rounded=0;entryX=0.5;entryY=1;entryDx=0;entryDy=0;exitX=0.5;exitY=0;exitDx=0;exitDy=0;" parent="1" source="bHs48gFSJPwJR3EDCK-C-102" target="bHs48gFSJPwJR3EDCK-C-7" edge="1">
          <mxGeometry width="50" height="50" relative="1" as="geometry">
            <mxPoint x="1240" y="350" as="sourcePoint" />
            <mxPoint x="1290" y="300" as="targetPoint" />
          </mxGeometry>
        </mxCell>
        <mxCell id="bHs48gFSJPwJR3EDCK-C-132" value="" style="endArrow=none;html=1;rounded=0;entryX=0.42;entryY=-0.035;entryDx=0;entryDy=0;entryPerimeter=0;" parent="1" source="bHs48gFSJPwJR3EDCK-C-102" target="bHs48gFSJPwJR3EDCK-C-5" edge="1">
          <mxGeometry width="50" height="50" relative="1" as="geometry">
            <mxPoint x="1269.2893218813451" y="290" as="sourcePoint" />
            <mxPoint x="1269.2893218813451" y="240" as="targetPoint" />
          </mxGeometry>
        </mxCell>
        <mxCell id="bHs48gFSJPwJR3EDCK-C-133" value="" style="endArrow=none;html=1;rounded=0;entryX=1;entryY=1;entryDx=0;entryDy=0;exitX=0.5;exitY=0;exitDx=0;exitDy=0;" parent="1" source="bHs48gFSJPwJR3EDCK-C-10" target="bHs48gFSJPwJR3EDCK-C-102" edge="1">
          <mxGeometry width="50" height="50" relative="1" as="geometry">
            <mxPoint x="1240" y="350" as="sourcePoint" />
            <mxPoint x="1290" y="300" as="targetPoint" />
          </mxGeometry>
        </mxCell>
        <mxCell id="bHs48gFSJPwJR3EDCK-C-134" value="" style="endArrow=none;html=1;rounded=0;entryX=0;entryY=1;entryDx=0;entryDy=0;" parent="1" source="bHs48gFSJPwJR3EDCK-C-94" target="bHs48gFSJPwJR3EDCK-C-5" edge="1">
          <mxGeometry width="50" height="50" relative="1" as="geometry">
            <mxPoint x="1150" y="330" as="sourcePoint" />
            <mxPoint x="1200" y="280" as="targetPoint" />
          </mxGeometry>
        </mxCell>
        <mxCell id="bHs48gFSJPwJR3EDCK-C-135" value="" style="endArrow=none;html=1;rounded=0;exitX=1;exitY=0.5;exitDx=0;exitDy=0;entryX=0.25;entryY=1;entryDx=0;entryDy=0;" parent="1" source="bHs48gFSJPwJR3EDCK-C-96" target="bHs48gFSJPwJR3EDCK-C-5" edge="1">
          <mxGeometry width="50" height="50" relative="1" as="geometry">
            <mxPoint x="1160" y="490" as="sourcePoint" />
            <mxPoint x="1210" y="440" as="targetPoint" />
          </mxGeometry>
        </mxCell>
        <mxCell id="bHs48gFSJPwJR3EDCK-C-136" value="" style="endArrow=none;html=1;rounded=0;exitX=0.326;exitY=-0.04;exitDx=0;exitDy=0;exitPerimeter=0;entryX=0.5;entryY=1;entryDx=0;entryDy=0;" parent="1" source="bHs48gFSJPwJR3EDCK-C-98" target="bHs48gFSJPwJR3EDCK-C-5" edge="1">
          <mxGeometry width="50" height="50" relative="1" as="geometry">
            <mxPoint x="1160" y="490" as="sourcePoint" />
            <mxPoint x="1210" y="440" as="targetPoint" />
          </mxGeometry>
        </mxCell>
        <mxCell id="bHs48gFSJPwJR3EDCK-C-137" value="" style="endArrow=none;html=1;rounded=0;entryX=0;entryY=0.5;entryDx=0;entryDy=0;exitX=0.585;exitY=1.039;exitDx=0;exitDy=0;exitPerimeter=0;" parent="1" source="bHs48gFSJPwJR3EDCK-C-5" target="bHs48gFSJPwJR3EDCK-C-99" edge="1">
          <mxGeometry width="50" height="50" relative="1" as="geometry">
            <mxPoint x="1160" y="490" as="sourcePoint" />
            <mxPoint x="1210" y="440" as="targetPoint" />
          </mxGeometry>
        </mxCell>
        <mxCell id="bHs48gFSJPwJR3EDCK-C-138" value="" style="endArrow=none;html=1;rounded=0;entryX=0.404;entryY=-0.056;entryDx=0;entryDy=0;entryPerimeter=0;exitX=0.81;exitY=1.023;exitDx=0;exitDy=0;exitPerimeter=0;" parent="1" source="bHs48gFSJPwJR3EDCK-C-5" target="bHs48gFSJPwJR3EDCK-C-100" edge="1">
          <mxGeometry width="50" height="50" relative="1" as="geometry">
            <mxPoint x="1160" y="490" as="sourcePoint" />
            <mxPoint x="1210" y="440" as="targetPoint" />
          </mxGeometry>
        </mxCell>
        <mxCell id="bHs48gFSJPwJR3EDCK-C-139" value="" style="endArrow=none;html=1;rounded=0;exitX=0.5;exitY=0;exitDx=0;exitDy=0;entryX=0.25;entryY=1;entryDx=0;entryDy=0;" parent="1" source="bHs48gFSJPwJR3EDCK-C-95" target="bHs48gFSJPwJR3EDCK-C-10" edge="1">
          <mxGeometry width="50" height="50" relative="1" as="geometry">
            <mxPoint x="1520" y="490" as="sourcePoint" />
            <mxPoint x="1570" y="440" as="targetPoint" />
          </mxGeometry>
        </mxCell>
        <mxCell id="bHs48gFSJPwJR3EDCK-C-140" value="" style="endArrow=none;html=1;rounded=0;exitX=0.5;exitY=0;exitDx=0;exitDy=0;entryX=0.5;entryY=1;entryDx=0;entryDy=0;" parent="1" source="bHs48gFSJPwJR3EDCK-C-97" target="bHs48gFSJPwJR3EDCK-C-10" edge="1">
          <mxGeometry width="50" height="50" relative="1" as="geometry">
            <mxPoint x="1520" y="490" as="sourcePoint" />
            <mxPoint x="1570" y="440" as="targetPoint" />
          </mxGeometry>
        </mxCell>
        <mxCell id="bHs48gFSJPwJR3EDCK-C-141" value="" style="endArrow=none;html=1;rounded=0;exitX=0.5;exitY=0;exitDx=0;exitDy=0;entryX=0.75;entryY=1;entryDx=0;entryDy=0;" parent="1" source="bHs48gFSJPwJR3EDCK-C-101" target="bHs48gFSJPwJR3EDCK-C-10" edge="1">
          <mxGeometry width="50" height="50" relative="1" as="geometry">
            <mxPoint x="1520" y="490" as="sourcePoint" />
            <mxPoint x="1570" y="440" as="targetPoint" />
          </mxGeometry>
        </mxCell>
        <mxCell id="bHs48gFSJPwJR3EDCK-C-142" value="" style="endArrow=none;html=1;rounded=0;exitX=0.5;exitY=0;exitDx=0;exitDy=0;entryX=0.5;entryY=1;entryDx=0;entryDy=0;" parent="1" source="bHs48gFSJPwJR3EDCK-C-4" target="bHs48gFSJPwJR3EDCK-C-91" edge="1">
          <mxGeometry width="50" height="50" relative="1" as="geometry">
            <mxPoint x="720" y="330" as="sourcePoint" />
            <mxPoint x="770" y="280" as="targetPoint" />
          </mxGeometry>
        </mxCell>
        <mxCell id="bHs48gFSJPwJR3EDCK-C-143" value="" style="endArrow=none;html=1;rounded=0;entryX=0.5;entryY=0;entryDx=0;entryDy=0;exitX=0.5;exitY=1;exitDx=0;exitDy=0;" parent="1" source="bHs48gFSJPwJR3EDCK-C-8" target="bHs48gFSJPwJR3EDCK-C-91" edge="1">
          <mxGeometry width="50" height="50" relative="1" as="geometry">
            <mxPoint x="720" y="330" as="sourcePoint" />
            <mxPoint x="770" y="280" as="targetPoint" />
          </mxGeometry>
        </mxCell>
        <mxCell id="bHs48gFSJPwJR3EDCK-C-144" value="" style="endArrow=none;html=1;rounded=0;exitX=0.5;exitY=0;exitDx=0;exitDy=0;entryX=0.25;entryY=1;entryDx=0;entryDy=0;" parent="1" source="bHs48gFSJPwJR3EDCK-C-74" target="bHs48gFSJPwJR3EDCK-C-3" edge="1">
          <mxGeometry width="50" height="50" relative="1" as="geometry">
            <mxPoint x="450" y="470" as="sourcePoint" />
            <mxPoint x="500" y="420" as="targetPoint" />
          </mxGeometry>
        </mxCell>
        <mxCell id="bHs48gFSJPwJR3EDCK-C-145" value="" style="endArrow=none;html=1;rounded=0;exitX=0.5;exitY=0;exitDx=0;exitDy=0;entryX=0.5;entryY=1;entryDx=0;entryDy=0;" parent="1" source="bHs48gFSJPwJR3EDCK-C-75" target="bHs48gFSJPwJR3EDCK-C-3" edge="1">
          <mxGeometry width="50" height="50" relative="1" as="geometry">
            <mxPoint x="450" y="470" as="sourcePoint" />
            <mxPoint x="500" y="420" as="targetPoint" />
          </mxGeometry>
        </mxCell>
        <mxCell id="bHs48gFSJPwJR3EDCK-C-146" value="" style="endArrow=none;html=1;rounded=0;exitX=0;exitY=0;exitDx=0;exitDy=0;entryX=0.75;entryY=1;entryDx=0;entryDy=0;" parent="1" source="bHs48gFSJPwJR3EDCK-C-79" target="bHs48gFSJPwJR3EDCK-C-3" edge="1">
          <mxGeometry width="50" height="50" relative="1" as="geometry">
            <mxPoint x="450" y="470" as="sourcePoint" />
            <mxPoint x="513" y="430" as="targetPoint" />
          </mxGeometry>
        </mxCell>
        <mxCell id="bHs48gFSJPwJR3EDCK-C-147" value="" style="endArrow=none;html=1;rounded=0;exitX=0;exitY=0.5;exitDx=0;exitDy=0;entryX=1;entryY=1;entryDx=0;entryDy=0;" parent="1" source="bHs48gFSJPwJR3EDCK-C-80" target="bHs48gFSJPwJR3EDCK-C-3" edge="1">
          <mxGeometry width="50" height="50" relative="1" as="geometry">
            <mxPoint x="450" y="470" as="sourcePoint" />
            <mxPoint x="500" y="420" as="targetPoint" />
          </mxGeometry>
        </mxCell>
        <mxCell id="bHs48gFSJPwJR3EDCK-C-148" value="" style="endArrow=none;html=1;rounded=0;exitX=0.5;exitY=0;exitDx=0;exitDy=0;entryX=0;entryY=0.75;entryDx=0;entryDy=0;" parent="1" source="bHs48gFSJPwJR3EDCK-C-46" target="bHs48gFSJPwJR3EDCK-C-1" edge="1">
          <mxGeometry width="50" height="50" relative="1" as="geometry">
            <mxPoint x="180" y="470" as="sourcePoint" />
            <mxPoint x="230" y="420" as="targetPoint" />
          </mxGeometry>
        </mxCell>
        <mxCell id="bHs48gFSJPwJR3EDCK-C-149" value="" style="endArrow=none;html=1;rounded=0;exitX=0.5;exitY=0;exitDx=0;exitDy=0;entryX=0.25;entryY=1;entryDx=0;entryDy=0;" parent="1" source="bHs48gFSJPwJR3EDCK-C-47" target="bHs48gFSJPwJR3EDCK-C-1" edge="1">
          <mxGeometry width="50" height="50" relative="1" as="geometry">
            <mxPoint x="180" y="470" as="sourcePoint" />
            <mxPoint x="230" y="420" as="targetPoint" />
          </mxGeometry>
        </mxCell>
        <mxCell id="bHs48gFSJPwJR3EDCK-C-150" value="" style="endArrow=none;html=1;rounded=0;exitX=0.5;exitY=0;exitDx=0;exitDy=0;entryX=0.5;entryY=1;entryDx=0;entryDy=0;" parent="1" source="bHs48gFSJPwJR3EDCK-C-48" target="bHs48gFSJPwJR3EDCK-C-1" edge="1">
          <mxGeometry width="50" height="50" relative="1" as="geometry">
            <mxPoint x="180" y="470" as="sourcePoint" />
            <mxPoint x="230" y="420" as="targetPoint" />
          </mxGeometry>
        </mxCell>
        <mxCell id="bHs48gFSJPwJR3EDCK-C-152" value="" style="endArrow=none;html=1;rounded=0;exitX=0;exitY=0;exitDx=0;exitDy=0;entryX=0.75;entryY=1;entryDx=0;entryDy=0;" parent="1" source="bHs48gFSJPwJR3EDCK-C-49" target="bHs48gFSJPwJR3EDCK-C-1" edge="1">
          <mxGeometry width="50" height="50" relative="1" as="geometry">
            <mxPoint x="180" y="470" as="sourcePoint" />
            <mxPoint x="230" y="420" as="targetPoint" />
          </mxGeometry>
        </mxCell>
        <mxCell id="bHs48gFSJPwJR3EDCK-C-153" value="" style="endArrow=none;html=1;rounded=0;entryX=0.5;entryY=0;entryDx=0;entryDy=0;" parent="1" target="bHs48gFSJPwJR3EDCK-C-50" edge="1">
          <mxGeometry width="50" height="50" relative="1" as="geometry">
            <mxPoint x="160" y="440" as="sourcePoint" />
            <mxPoint x="230" y="420" as="targetPoint" />
          </mxGeometry>
        </mxCell>
        <mxCell id="bHs48gFSJPwJR3EDCK-C-154" value="shipping_id" style="ellipse;whiteSpace=wrap;html=1;fillColor=#d5e8d4;gradientColor=#97d077;strokeColor=#82b366;" parent="1" vertex="1">
          <mxGeometry x="710" y="520" width="100" height="30" as="geometry" />
        </mxCell>
        <mxCell id="bHs48gFSJPwJR3EDCK-C-155" value="shipping_date" style="ellipse;whiteSpace=wrap;html=1;fillColor=#d5e8d4;gradientColor=#97d077;strokeColor=#82b366;" parent="1" vertex="1">
          <mxGeometry x="750" y="580" width="100" height="30" as="geometry" />
        </mxCell>
        <mxCell id="bHs48gFSJPwJR3EDCK-C-156" value="address" style="ellipse;whiteSpace=wrap;html=1;fillColor=#d5e8d4;gradientColor=#97d077;strokeColor=#82b366;" parent="1" vertex="1">
          <mxGeometry x="870" y="567.5" width="100" height="30" as="geometry" />
        </mxCell>
        <mxCell id="bHs48gFSJPwJR3EDCK-C-157" value="phoneNumber" style="ellipse;whiteSpace=wrap;html=1;fillColor=#d5e8d4;gradientColor=#97d077;strokeColor=#82b366;" parent="1" vertex="1">
          <mxGeometry x="880" y="520" width="100" height="30" as="geometry" />
        </mxCell>
        <mxCell id="bHs48gFSJPwJR3EDCK-C-158" value="" style="endArrow=none;html=1;rounded=0;exitX=0.5;exitY=0;exitDx=0;exitDy=0;entryX=0;entryY=1;entryDx=0;entryDy=0;" parent="1" source="bHs48gFSJPwJR3EDCK-C-154" target="bHs48gFSJPwJR3EDCK-C-4" edge="1">
          <mxGeometry width="50" height="50" relative="1" as="geometry">
            <mxPoint x="930" y="540" as="sourcePoint" />
            <mxPoint x="980" y="490" as="targetPoint" />
          </mxGeometry>
        </mxCell>
        <mxCell id="bHs48gFSJPwJR3EDCK-C-159" value="" style="endArrow=none;html=1;rounded=0;exitX=0.5;exitY=0;exitDx=0;exitDy=0;entryX=0.5;entryY=1;entryDx=0;entryDy=0;" parent="1" source="bHs48gFSJPwJR3EDCK-C-155" target="bHs48gFSJPwJR3EDCK-C-4" edge="1">
          <mxGeometry width="50" height="50" relative="1" as="geometry">
            <mxPoint x="930" y="540" as="sourcePoint" />
            <mxPoint x="980" y="490" as="targetPoint" />
          </mxGeometry>
        </mxCell>
        <mxCell id="bHs48gFSJPwJR3EDCK-C-160" value="" style="endArrow=none;html=1;rounded=0;exitX=0;exitY=0;exitDx=0;exitDy=0;" parent="1" source="bHs48gFSJPwJR3EDCK-C-156" edge="1">
          <mxGeometry width="50" height="50" relative="1" as="geometry">
            <mxPoint x="930" y="540" as="sourcePoint" />
            <mxPoint x="850" y="450" as="targetPoint" />
          </mxGeometry>
        </mxCell>
        <mxCell id="bHs48gFSJPwJR3EDCK-C-161" value="" style="endArrow=none;html=1;rounded=0;entryX=0.75;entryY=1;entryDx=0;entryDy=0;exitX=0.5;exitY=0;exitDx=0;exitDy=0;" parent="1" source="bHs48gFSJPwJR3EDCK-C-157" target="bHs48gFSJPwJR3EDCK-C-4" edge="1">
          <mxGeometry width="50" height="50" relative="1" as="geometry">
            <mxPoint x="950" y="530" as="sourcePoint" />
            <mxPoint x="1000" y="480" as="targetPoint" />
          </mxGeometry>
        </mxCell>
        <mxCell id="bHs48gFSJPwJR3EDCK-C-167" value="Register" style="rounded=0;whiteSpace=wrap;html=1;fillColor=#e6d0de;gradientColor=#d5739d;strokeColor=#996185;" parent="1" vertex="1">
          <mxGeometry x="650" y="-315" width="120" height="40" as="geometry" />
        </mxCell>
        <mxCell id="bHs48gFSJPwJR3EDCK-C-168" value="firstName" style="ellipse;whiteSpace=wrap;html=1;fillColor=#d5e8d4;gradientColor=#97d077;strokeColor=#82b366;" parent="1" vertex="1">
          <mxGeometry x="500" y="-370" width="120" height="30" as="geometry" />
        </mxCell>
        <mxCell id="bHs48gFSJPwJR3EDCK-C-169" value="lastName" style="ellipse;whiteSpace=wrap;html=1;fillColor=#d5e8d4;gradientColor=#97d077;strokeColor=#82b366;" parent="1" vertex="1">
          <mxGeometry x="545" y="-400" width="110" height="30" as="geometry" />
        </mxCell>
        <mxCell id="bHs48gFSJPwJR3EDCK-C-170" value="address" style="ellipse;whiteSpace=wrap;html=1;fillColor=#d5e8d4;gradientColor=#97d077;strokeColor=#82b366;" parent="1" vertex="1">
          <mxGeometry x="620" y="-430" width="110" height="30" as="geometry" />
        </mxCell>
        <mxCell id="bHs48gFSJPwJR3EDCK-C-171" value="email" style="ellipse;whiteSpace=wrap;html=1;fillColor=#d5e8d4;gradientColor=#97d077;strokeColor=#82b366;" parent="1" vertex="1">
          <mxGeometry x="700" y="-395" width="110" height="20" as="geometry" />
        </mxCell>
        <mxCell id="bHs48gFSJPwJR3EDCK-C-173" value="password" style="ellipse;whiteSpace=wrap;html=1;fillColor=#d5e8d4;gradientColor=#97d077;strokeColor=#82b366;" parent="1" vertex="1">
          <mxGeometry x="750" y="-370" width="120" height="30" as="geometry" />
        </mxCell>
        <mxCell id="bHs48gFSJPwJR3EDCK-C-174" value="" style="endArrow=none;html=1;rounded=0;exitX=1;exitY=0.5;exitDx=0;exitDy=0;entryX=0;entryY=0;entryDx=0;entryDy=0;" parent="1" source="bHs48gFSJPwJR3EDCK-C-168" target="bHs48gFSJPwJR3EDCK-C-167" edge="1">
          <mxGeometry width="50" height="50" relative="1" as="geometry">
            <mxPoint x="740" y="-235" as="sourcePoint" />
            <mxPoint x="790" y="-285" as="targetPoint" />
          </mxGeometry>
        </mxCell>
        <mxCell id="bHs48gFSJPwJR3EDCK-C-175" value="" style="endArrow=none;html=1;rounded=0;exitX=1;exitY=0.5;exitDx=0;exitDy=0;entryX=0.073;entryY=-0.03;entryDx=0;entryDy=0;entryPerimeter=0;" parent="1" source="bHs48gFSJPwJR3EDCK-C-169" target="bHs48gFSJPwJR3EDCK-C-167" edge="1">
          <mxGeometry width="50" height="50" relative="1" as="geometry">
            <mxPoint x="740" y="-235" as="sourcePoint" />
            <mxPoint x="790" y="-285" as="targetPoint" />
          </mxGeometry>
        </mxCell>
        <mxCell id="bHs48gFSJPwJR3EDCK-C-176" value="" style="endArrow=none;html=1;rounded=0;exitX=0.5;exitY=1;exitDx=0;exitDy=0;entryX=0.25;entryY=0;entryDx=0;entryDy=0;" parent="1" source="bHs48gFSJPwJR3EDCK-C-170" target="bHs48gFSJPwJR3EDCK-C-167" edge="1">
          <mxGeometry width="50" height="50" relative="1" as="geometry">
            <mxPoint x="740" y="-235" as="sourcePoint" />
            <mxPoint x="790" y="-285" as="targetPoint" />
          </mxGeometry>
        </mxCell>
        <mxCell id="bHs48gFSJPwJR3EDCK-C-177" value="" style="endArrow=none;html=1;rounded=0;exitX=0.5;exitY=1;exitDx=0;exitDy=0;entryX=0.5;entryY=0;entryDx=0;entryDy=0;" parent="1" source="bHs48gFSJPwJR3EDCK-C-171" target="bHs48gFSJPwJR3EDCK-C-167" edge="1">
          <mxGeometry width="50" height="50" relative="1" as="geometry">
            <mxPoint x="740" y="-235" as="sourcePoint" />
            <mxPoint x="710" y="-320" as="targetPoint" />
            <Array as="points">
              <mxPoint x="750" y="-370" />
            </Array>
          </mxGeometry>
        </mxCell>
        <mxCell id="bHs48gFSJPwJR3EDCK-C-178" value="" style="endArrow=none;html=1;rounded=0;entryX=0.808;entryY=0.033;entryDx=0;entryDy=0;entryPerimeter=0;" parent="1" target="bHs48gFSJPwJR3EDCK-C-167" edge="1">
          <mxGeometry width="50" height="50" relative="1" as="geometry">
            <mxPoint x="810" y="-340" as="sourcePoint" />
            <mxPoint x="670" y="-275" as="targetPoint" />
          </mxGeometry>
        </mxCell>
        <mxCell id="bHs48gFSJPwJR3EDCK-C-180" value="can" style="rhombus;whiteSpace=wrap;html=1;fillColor=#dae8fc;gradientColor=#7ea6e0;strokeColor=#6c8ebf;" parent="1" vertex="1">
          <mxGeometry x="340" y="-135" width="80" height="70" as="geometry" />
        </mxCell>
        <mxCell id="bHs48gFSJPwJR3EDCK-C-184" value="Seller" style="rounded=0;whiteSpace=wrap;html=1;fillColor=#e6d0de;gradientColor=#d5739d;strokeColor=#996185;" parent="1" vertex="1">
          <mxGeometry x="1080" y="-255" width="120" height="30" as="geometry" />
        </mxCell>
        <mxCell id="bHs48gFSJPwJR3EDCK-C-185" value="seller_id" style="ellipse;whiteSpace=wrap;html=1;fillColor=#d5e8d4;gradientColor=#97d077;strokeColor=#82b366;" parent="1" vertex="1">
          <mxGeometry x="980" y="-295" width="120" height="20" as="geometry" />
        </mxCell>
        <mxCell id="bHs48gFSJPwJR3EDCK-C-186" value="seller_name" style="ellipse;whiteSpace=wrap;html=1;fillColor=#d5e8d4;gradientColor=#97d077;strokeColor=#82b366;" parent="1" vertex="1">
          <mxGeometry x="1110" y="-340" width="120" height="20" as="geometry" />
        </mxCell>
        <mxCell id="bHs48gFSJPwJR3EDCK-C-187" value="rating" style="ellipse;whiteSpace=wrap;html=1;fillColor=#d5e8d4;gradientColor=#97d077;strokeColor=#82b366;" parent="1" vertex="1">
          <mxGeometry x="1165" y="-305" width="120" height="20" as="geometry" />
        </mxCell>
        <mxCell id="bHs48gFSJPwJR3EDCK-C-188" value="Login" style="rounded=0;whiteSpace=wrap;html=1;fillColor=#e6d0de;gradientColor=#d5739d;strokeColor=#996185;" parent="1" vertex="1">
          <mxGeometry x="200" y="-260" width="120" height="40" as="geometry" />
        </mxCell>
        <mxCell id="bHs48gFSJPwJR3EDCK-C-189" value="email" style="ellipse;whiteSpace=wrap;html=1;fillColor=#d5e8d4;gradientColor=#97d077;strokeColor=#82b366;" parent="1" vertex="1">
          <mxGeometry x="70" y="-305" width="110" height="30" as="geometry" />
        </mxCell>
        <mxCell id="bHs48gFSJPwJR3EDCK-C-190" value="password" style="ellipse;whiteSpace=wrap;html=1;fillColor=#d5e8d4;gradientColor=#97d077;strokeColor=#82b366;" parent="1" vertex="1">
          <mxGeometry x="200" y="-330" width="120" height="30" as="geometry" />
        </mxCell>
        <mxCell id="bHs48gFSJPwJR3EDCK-C-191" value="" style="endArrow=none;html=1;rounded=0;exitX=0;exitY=0;exitDx=0;exitDy=0;entryX=0.5;entryY=1;entryDx=0;entryDy=0;" parent="1" source="bHs48gFSJPwJR3EDCK-C-188" target="bHs48gFSJPwJR3EDCK-C-189" edge="1">
          <mxGeometry width="50" height="50" relative="1" as="geometry">
            <mxPoint x="530" y="-250" as="sourcePoint" />
            <mxPoint x="580" y="-300" as="targetPoint" />
          </mxGeometry>
        </mxCell>
        <mxCell id="bHs48gFSJPwJR3EDCK-C-192" value="" style="endArrow=none;html=1;rounded=0;exitX=0.5;exitY=0;exitDx=0;exitDy=0;entryX=0;entryY=1;entryDx=0;entryDy=0;" parent="1" source="bHs48gFSJPwJR3EDCK-C-188" target="bHs48gFSJPwJR3EDCK-C-190" edge="1">
          <mxGeometry width="50" height="50" relative="1" as="geometry">
            <mxPoint x="530" y="-250" as="sourcePoint" />
            <mxPoint x="580" y="-300" as="targetPoint" />
          </mxGeometry>
        </mxCell>
        <mxCell id="bHs48gFSJPwJR3EDCK-C-194" value="" style="endArrow=none;html=1;rounded=0;exitX=1;exitY=0;exitDx=0;exitDy=0;entryX=0;entryY=1;entryDx=0;entryDy=0;" parent="1" source="bHs48gFSJPwJR3EDCK-C-9" target="bHs48gFSJPwJR3EDCK-C-180" edge="1">
          <mxGeometry width="50" height="50" relative="1" as="geometry">
            <mxPoint x="360" y="-10" as="sourcePoint" />
            <mxPoint x="410" y="-60" as="targetPoint" />
          </mxGeometry>
        </mxCell>
        <mxCell id="bHs48gFSJPwJR3EDCK-C-195" value="" style="endArrow=none;html=1;rounded=0;entryX=0.5;entryY=1;entryDx=0;entryDy=0;exitX=0;exitY=0;exitDx=0;exitDy=0;" parent="1" source="bHs48gFSJPwJR3EDCK-C-180" target="bHs48gFSJPwJR3EDCK-C-188" edge="1">
          <mxGeometry width="50" height="50" relative="1" as="geometry">
            <mxPoint x="360" y="-10" as="sourcePoint" />
            <mxPoint x="410" y="-60" as="targetPoint" />
          </mxGeometry>
        </mxCell>
        <mxCell id="bHs48gFSJPwJR3EDCK-C-196" value="" style="endArrow=none;html=1;rounded=0;exitX=1;exitY=0;exitDx=0;exitDy=0;entryX=0;entryY=0.5;entryDx=0;entryDy=0;" parent="1" source="bHs48gFSJPwJR3EDCK-C-180" target="bHs48gFSJPwJR3EDCK-C-167" edge="1">
          <mxGeometry width="50" height="50" relative="1" as="geometry">
            <mxPoint x="560" y="-80" as="sourcePoint" />
            <mxPoint x="610" y="-130" as="targetPoint" />
          </mxGeometry>
        </mxCell>
        <mxCell id="bHs48gFSJPwJR3EDCK-C-197" value="" style="endArrow=none;html=1;rounded=0;exitX=0.5;exitY=1;exitDx=0;exitDy=0;entryX=0.25;entryY=0;entryDx=0;entryDy=0;" parent="1" source="bHs48gFSJPwJR3EDCK-C-185" target="bHs48gFSJPwJR3EDCK-C-184" edge="1">
          <mxGeometry width="50" height="50" relative="1" as="geometry">
            <mxPoint x="1090" y="-140" as="sourcePoint" />
            <mxPoint x="1140" y="-190" as="targetPoint" />
          </mxGeometry>
        </mxCell>
        <mxCell id="bHs48gFSJPwJR3EDCK-C-198" value="" style="endArrow=none;html=1;rounded=0;exitX=0.5;exitY=1;exitDx=0;exitDy=0;entryX=0.5;entryY=0;entryDx=0;entryDy=0;" parent="1" source="bHs48gFSJPwJR3EDCK-C-186" target="bHs48gFSJPwJR3EDCK-C-184" edge="1">
          <mxGeometry width="50" height="50" relative="1" as="geometry">
            <mxPoint x="1090" y="-140" as="sourcePoint" />
            <mxPoint x="1140" y="-190" as="targetPoint" />
          </mxGeometry>
        </mxCell>
        <mxCell id="bHs48gFSJPwJR3EDCK-C-199" value="" style="endArrow=none;html=1;rounded=0;entryX=0.5;entryY=1;entryDx=0;entryDy=0;exitX=0.75;exitY=0;exitDx=0;exitDy=0;" parent="1" source="bHs48gFSJPwJR3EDCK-C-184" target="bHs48gFSJPwJR3EDCK-C-187" edge="1">
          <mxGeometry width="50" height="50" relative="1" as="geometry">
            <mxPoint x="1090" y="-140" as="sourcePoint" />
            <mxPoint x="1140" y="-190" as="targetPoint" />
          </mxGeometry>
        </mxCell>
        <mxCell id="bHs48gFSJPwJR3EDCK-C-200" value="adds" style="rhombus;whiteSpace=wrap;html=1;fillColor=#dae8fc;gradientColor=#7ea6e0;strokeColor=#6c8ebf;" parent="1" vertex="1">
          <mxGeometry x="1120" y="-130" width="80" height="70" as="geometry" />
        </mxCell>
        <mxCell id="bHs48gFSJPwJR3EDCK-C-201" value="" style="endArrow=none;html=1;rounded=0;exitX=0.5;exitY=1;exitDx=0;exitDy=0;entryX=0.5;entryY=0;entryDx=0;entryDy=0;" parent="1" source="bHs48gFSJPwJR3EDCK-C-184" target="bHs48gFSJPwJR3EDCK-C-200" edge="1">
          <mxGeometry width="50" height="50" relative="1" as="geometry">
            <mxPoint x="1350" y="-60" as="sourcePoint" />
            <mxPoint x="1400" y="-110" as="targetPoint" />
          </mxGeometry>
        </mxCell>
        <mxCell id="bHs48gFSJPwJR3EDCK-C-202" value="" style="endArrow=none;html=1;rounded=0;exitX=0.5;exitY=1;exitDx=0;exitDy=0;entryX=0;entryY=0.25;entryDx=0;entryDy=0;" parent="1" source="bHs48gFSJPwJR3EDCK-C-200" target="bHs48gFSJPwJR3EDCK-C-7" edge="1">
          <mxGeometry width="50" height="50" relative="1" as="geometry">
            <mxPoint x="1350" y="-60" as="sourcePoint" />
            <mxPoint x="1400" y="-110" as="targetPoint" />
          </mxGeometry>
        </mxCell>
        <mxCell id="bHs48gFSJPwJR3EDCK-C-203" value="can" style="rhombus;whiteSpace=wrap;html=1;fillColor=#dae8fc;gradientColor=#7ea6e0;strokeColor=#6c8ebf;" parent="1" vertex="1">
          <mxGeometry x="870" y="-230" width="80" height="80" as="geometry" />
        </mxCell>
        <mxCell id="bHs48gFSJPwJR3EDCK-C-204" value="" style="endArrow=none;html=1;rounded=0;entryX=0;entryY=0.5;entryDx=0;entryDy=0;exitX=1;exitY=0.5;exitDx=0;exitDy=0;" parent="1" source="bHs48gFSJPwJR3EDCK-C-203" target="bHs48gFSJPwJR3EDCK-C-184" edge="1">
          <mxGeometry width="50" height="50" relative="1" as="geometry">
            <mxPoint x="770" y="-160" as="sourcePoint" />
            <mxPoint x="820" y="-210" as="targetPoint" />
          </mxGeometry>
        </mxCell>
        <mxCell id="bHs48gFSJPwJR3EDCK-C-205" value="" style="endArrow=none;html=1;rounded=0;exitX=1;exitY=0.5;exitDx=0;exitDy=0;" parent="1" source="bHs48gFSJPwJR3EDCK-C-167" target="bHs48gFSJPwJR3EDCK-C-203" edge="1">
          <mxGeometry width="50" height="50" relative="1" as="geometry">
            <mxPoint x="770" y="-160" as="sourcePoint" />
            <mxPoint x="820" y="-210" as="targetPoint" />
          </mxGeometry>
        </mxCell>
        <mxCell id="bHs48gFSJPwJR3EDCK-C-206" value="" style="endArrow=none;html=1;rounded=0;entryX=0;entryY=0.5;entryDx=0;entryDy=0;exitX=1;exitY=0.5;exitDx=0;exitDy=0;" parent="1" source="bHs48gFSJPwJR3EDCK-C-188" target="bHs48gFSJPwJR3EDCK-C-203" edge="1">
          <mxGeometry width="50" height="50" relative="1" as="geometry">
            <mxPoint x="610" y="-160" as="sourcePoint" />
            <mxPoint x="660" y="-210" as="targetPoint" />
          </mxGeometry>
        </mxCell>
        <mxCell id="bHs48gFSJPwJR3EDCK-C-208" value="Admin" style="rounded=0;whiteSpace=wrap;html=1;fillColor=#e6d0de;gradientColor=#d5739d;strokeColor=#996185;" parent="1" vertex="1">
          <mxGeometry x="345" y="-520" width="120" height="40" as="geometry" />
        </mxCell>
        <mxCell id="bHs48gFSJPwJR3EDCK-C-209" value="can" style="rhombus;whiteSpace=wrap;html=1;fillColor=#dae8fc;gradientColor=#7ea6e0;strokeColor=#6c8ebf;" parent="1" vertex="1">
          <mxGeometry x="365" y="-425" width="80" height="65" as="geometry" />
        </mxCell>
        <mxCell id="bHs48gFSJPwJR3EDCK-C-210" value="" style="endArrow=none;html=1;rounded=0;entryX=0.5;entryY=1;entryDx=0;entryDy=0;exitX=0.5;exitY=0;exitDx=0;exitDy=0;" parent="1" source="bHs48gFSJPwJR3EDCK-C-209" target="bHs48gFSJPwJR3EDCK-C-208" edge="1">
          <mxGeometry width="50" height="50" relative="1" as="geometry">
            <mxPoint x="430" y="-410" as="sourcePoint" />
            <mxPoint x="480" y="-460" as="targetPoint" />
          </mxGeometry>
        </mxCell>
        <mxCell id="bHs48gFSJPwJR3EDCK-C-211" value="" style="endArrow=none;html=1;rounded=0;entryX=1;entryY=0;entryDx=0;entryDy=0;exitX=0;exitY=1;exitDx=0;exitDy=0;" parent="1" source="bHs48gFSJPwJR3EDCK-C-209" target="bHs48gFSJPwJR3EDCK-C-188" edge="1">
          <mxGeometry width="50" height="50" relative="1" as="geometry">
            <mxPoint x="430" y="-410" as="sourcePoint" />
            <mxPoint x="480" y="-460" as="targetPoint" />
          </mxGeometry>
        </mxCell>
        <mxCell id="bHs48gFSJPwJR3EDCK-C-212" value="" style="endArrow=none;html=1;rounded=0;entryX=0;entryY=0.5;entryDx=0;entryDy=0;exitX=0.5;exitY=1;exitDx=0;exitDy=0;" parent="1" source="bHs48gFSJPwJR3EDCK-C-209" target="bHs48gFSJPwJR3EDCK-C-167" edge="1">
          <mxGeometry width="50" height="50" relative="1" as="geometry">
            <mxPoint x="430" y="-410" as="sourcePoint" />
            <mxPoint x="480" y="-460" as="targetPoint" />
          </mxGeometry>
        </mxCell>
        <mxCell id="bHs48gFSJPwJR3EDCK-C-215" value="views" style="rhombus;whiteSpace=wrap;html=1;fillColor=#dae8fc;gradientColor=#7ea6e0;strokeColor=#6c8ebf;" parent="1" vertex="1">
          <mxGeometry x="890" y="-550" width="80" height="80" as="geometry" />
        </mxCell>
        <mxCell id="bHs48gFSJPwJR3EDCK-C-216" value="" style="endArrow=none;html=1;rounded=0;exitX=1;exitY=0.5;exitDx=0;exitDy=0;entryX=0;entryY=0.5;entryDx=0;entryDy=0;" parent="1" source="bHs48gFSJPwJR3EDCK-C-208" target="bHs48gFSJPwJR3EDCK-C-215" edge="1">
          <mxGeometry width="50" height="50" relative="1" as="geometry">
            <mxPoint x="1020" y="10" as="sourcePoint" />
            <mxPoint x="1070" y="-40" as="targetPoint" />
          </mxGeometry>
        </mxCell>
        <mxCell id="bHs48gFSJPwJR3EDCK-C-218" value="" style="endArrow=none;html=1;rounded=0;edgeStyle=orthogonalEdgeStyle;entryX=0.75;entryY=0;entryDx=0;entryDy=0;exitX=1;exitY=0.5;exitDx=0;exitDy=0;" parent="1" source="bHs48gFSJPwJR3EDCK-C-215" target="bHs48gFSJPwJR3EDCK-C-7" edge="1">
          <mxGeometry width="50" height="50" relative="1" as="geometry">
            <mxPoint x="1750" y="-220.6" as="sourcePoint" />
            <mxPoint x="1030" y="-530.6" as="targetPoint" />
          </mxGeometry>
        </mxCell>
        <mxCell id="PbbSX0QdzyGL7wbpXwj7-1" value="block/view" style="rhombus;whiteSpace=wrap;html=1;fillColor=#dae8fc;gradientColor=#7ea6e0;strokeColor=#6c8ebf;" vertex="1" parent="1">
          <mxGeometry x="940" y="-710" width="100" height="100" as="geometry" />
        </mxCell>
        <mxCell id="PbbSX0QdzyGL7wbpXwj7-2" value="" style="endArrow=none;html=1;rounded=0;entryX=1;entryY=0;entryDx=0;entryDy=0;exitX=0;exitY=0.5;exitDx=0;exitDy=0;" edge="1" parent="1" source="PbbSX0QdzyGL7wbpXwj7-1" target="bHs48gFSJPwJR3EDCK-C-208">
          <mxGeometry width="50" height="50" relative="1" as="geometry">
            <mxPoint x="910" y="-460" as="sourcePoint" />
            <mxPoint x="960" y="-510" as="targetPoint" />
          </mxGeometry>
        </mxCell>
        <mxCell id="PbbSX0QdzyGL7wbpXwj7-3" value="" style="endArrow=none;html=1;rounded=0;entryX=1;entryY=0.5;entryDx=0;entryDy=0;" edge="1" parent="1" target="PbbSX0QdzyGL7wbpXwj7-1">
          <mxGeometry width="50" height="50" relative="1" as="geometry">
            <mxPoint x="1120" y="-250" as="sourcePoint" />
            <mxPoint x="960" y="-510" as="targetPoint" />
          </mxGeometry>
        </mxCell>
        <mxCell id="PbbSX0QdzyGL7wbpXwj7-5" value="block customer" style="rhombus;whiteSpace=wrap;html=1;fillColor=#dae8fc;gradientColor=#7ea6e0;strokeColor=#6c8ebf;" vertex="1" parent="1">
          <mxGeometry x="-80" y="-410" width="80" height="80" as="geometry" />
        </mxCell>
        <mxCell id="PbbSX0QdzyGL7wbpXwj7-6" value="" style="endArrow=none;html=1;rounded=0;exitX=1;exitY=0.5;exitDx=0;exitDy=0;entryX=0;entryY=1;entryDx=0;entryDy=0;" edge="1" parent="1" source="PbbSX0QdzyGL7wbpXwj7-5" target="bHs48gFSJPwJR3EDCK-C-208">
          <mxGeometry width="50" height="50" relative="1" as="geometry">
            <mxPoint x="680" y="-460" as="sourcePoint" />
            <mxPoint x="730" y="-510" as="targetPoint" />
          </mxGeometry>
        </mxCell>
        <mxCell id="PbbSX0QdzyGL7wbpXwj7-7" value="" style="endArrow=none;html=1;rounded=0;exitX=0.5;exitY=1;exitDx=0;exitDy=0;entryX=0.25;entryY=0;entryDx=0;entryDy=0;" edge="1" parent="1" source="PbbSX0QdzyGL7wbpXwj7-5" target="bHs48gFSJPwJR3EDCK-C-9">
          <mxGeometry width="50" height="50" relative="1" as="geometry">
            <mxPoint x="440" y="-220" as="sourcePoint" />
            <mxPoint x="490" y="-270" as="targetPoint" />
          </mxGeometry>
        </mxCell>
      </root>
    </mxGraphModel>
  </diagram>
</mxfile>
